<svg width="20" height="23" viewBox="0 0 20 23" fill="none" xmlns="http://www.w3.org/2000/svg">
<path d="M14.5055 21.9201H4.69437C4.20477 21.9208 3.7336 21.7333 3.37817 21.3964C3.02274 21.0595 2.81019 20.5989 2.78442 20.1097L1.91992 4.64014H17.2799L16.4154 20.1097C16.3897 20.5989 16.1771 21.0595 15.8217 21.3964C15.4662 21.7333 14.9951 21.9208 14.5055 21.9201Z" stroke="white" stroke-miterlimit="10"/>
<path d="M0 4.64014H19.2" stroke="white" stroke-miterlimit="10"/>
<path d="M7.67977 0.799805H11.5198C12.029 0.799805 12.5173 1.00209 12.8774 1.36216C13.2375 1.72223 13.4398 2.21059 13.4398 2.7198V4.6398H5.75977V2.7198C5.75977 2.21059 5.96205 1.72223 6.32212 1.36216C6.68219 1.00209 7.17055 0.799805 7.67977 0.799805Z" stroke="white" stroke-miterlimit="10"/>
<path d="M9.35986 7.52002V20" stroke="white" stroke-miterlimit="10"/>
<path d="M12.2402 7.52002V20" stroke="white" stroke-miterlimit="10"/>
<path d="M5.75977 7.52002V20" stroke="white" stroke-miterlimit="10"/>
</svg>
