<svg width="21" height="21" viewBox="0 0 21 21" fill="none" xmlns="http://www.w3.org/2000/svg">
<rect width="19.2" height="19.2" transform="translate(1 0.799805)" fill="#4FC3F7"/>
<path d="M4.32308 5.59961H3.21538C2.62783 5.59961 2.06434 5.83302 1.64887 6.24848C1.23341 6.66395 1 7.22744 1 7.81499V17.7842C1 18.3718 1.23341 18.9353 1.64887 19.3507C2.06434 19.7662 2.62783 19.9996 3.21538 19.9996H13.1846C13.7722 19.9996 14.3357 19.7662 14.7511 19.3507C15.1666 18.9353 15.4 18.3718 15.4 17.7842V16.6765" stroke="white" stroke-linecap="round" stroke-linejoin="round"/>
<path d="M19.5109 4.81509C19.952 4.37398 20.1998 3.77572 20.1998 3.1519C20.1998 2.52809 19.952 1.92982 19.5109 1.48872C19.0697 1.04761 18.4715 0.799805 17.8477 0.799805C17.2239 0.799805 16.6256 1.04761 16.1845 1.48872L6.75977 10.8798V14.2398H10.1197L19.5109 4.81509Z" stroke="white" stroke-linecap="round" stroke-linejoin="round"/>
<path d="M14.4399 2.71973L18.2799 6.55973" stroke="white" stroke-linecap="round" stroke-linejoin="round"/>
</svg>
